# xmcd
#
# Track frame offsets: 
#        150
#        16185
#        32630
#        45755
#        60632
#        75997
#        92135
#        107325
#        124345
#        141857
#        153557
#        168347
#        186197
#        200782
#        213360
#        244175
#        257202
#
# Disc length: 3687 seconds
#
# Revision: 5
# Processed by: cddbd v1.5.2PL0 Copyright (c) Steve Scherf et al.
# Submitted via: ExactAudioCopyFreeDBPlugin 1.0
#
DISCID=e00e6511
DTITLE=The Jimi Hendrix Experience - Are You Experienced?
DYEAR=1993
DGENRE=Psychedelic Rock - Blues Rock
TTITLE0=Hey Joe
TTITLE1=Stone Free
TTITLE2=Purple Haze
TTITLE3=51st Anniversary
TTITLE4=The Wind Cries Mary
TTITLE5=Highway Chile
TTITLE6=Foxy Lady
TTITLE7=Manic Depression
TTITLE8=Red House
TTITLE9=Can You See Me
TTITLE10=Love Or Confusion
TTITLE11=I Don't Live Today
TTITLE12=May This Be Love
TTITLE13=Fire
TTITLE14=Third Stone From The Sun
TTITLE15=Remember
TTITLE16=Are You Experienced?
EXTD=YEAR: 1967
EXTT0=
EXTT1=
EXTT2=
EXTT3=
EXTT4=
EXTT5=
EXTT6=
EXTT7=
EXTT8=
EXTT9=
EXTT10=
EXTT11=
EXTT12=
EXTT13=
EXTT14=
EXTT15=
EXTT16=
PLAYORDER=
